<svg width="41" height="40" viewBox="0 0 41 40" fill="none" xmlns="http://www.w3.org/2000/svg">
<circle cx="20.5" cy="20" r="20" fill="#E1F5FF"/>
<path d="M9.5 14V26H24.1484C23.7559 25.5635 23.4658 25.0508 23.2695 24.5H12.4355C12.4766 24.3799 12.5 24.2539 12.5 24.125C12.5 23.5039 11.9961 23 11.375 23C11.2461 23 11.1201 23.0234 11 23.0674V16.9326C11.1201 16.9766 11.2461 17 11.375 17C11.9961 17 12.5 16.4961 12.5 15.875C12.5 15.7461 12.4766 15.6201 12.4355 15.5H26.0674C26.0234 15.6201 26 15.7461 26 15.875C26 16.4961 26.5039 17 27.125 17C27.2539 17 27.3799 16.9766 27.5 16.9326V19.25H29V14H9.5ZM19.25 17C17.5918 17 16.25 18.3418 16.25 20V20.75H16.4023C16.7393 22.0332 17.8584 23 19.25 23C20.1611 23 20.9551 22.6074 21.5 21.9863V19.25H22.1475C21.8223 17.9434 20.6709 17 19.25 17ZM19.25 18.5C20.1055 18.5 20.75 19.1445 20.75 20C20.75 20.8555 20.1055 21.5 19.25 21.5C18.3564 21.5 17.75 20.8936 17.75 20C17.75 19.1064 18.3564 18.5 19.25 18.5ZM14 18.875C13.3789 18.875 12.875 19.3789 12.875 20C12.875 20.6211 13.3789 21.125 14 21.125C14.6211 21.125 15.125 20.6211 15.125 20C15.125 19.3789 14.6211 18.875 14 18.875ZM23 20V21.5H23.75V23C23.75 24.2012 24.3506 25.3262 25.25 26C24.3506 26.6738 23.75 27.7988 23.75 29V30.5H23V32H32V30.5H31.25V29C31.25 27.7988 30.6494 26.6738 29.75 26C30.6494 25.3262 31.25 24.2012 31.25 23V21.5H32V20H23ZM25.25 21.5H29.75V23C29.75 24.2744 28.7744 25.25 27.5 25.25C26.2256 25.25 25.25 24.2744 25.25 23V21.5ZM26 23C26 23 26 24.5 27.5 24.5C29 24.5 29 23 29 23H26ZM27.5 26.75C28.7744 26.75 29.75 27.7256 29.75 29V30.5H29C29 29.6738 28.3262 29 27.5 29C26.6738 29 26 29.6738 26 30.5H25.25V29C25.25 27.7256 26.2256 26.75 27.5 26.75Z" fill="#253DF4"/>
</svg>
