<svg width="40" height="40" viewBox="0 0 40 40" fill="none" xmlns="http://www.w3.org/2000/svg">
<circle cx="20" cy="20" r="20" fill="#EFFCF2"/>
<path d="M12 12C10.8945 12 10 12.8945 10 14V14.5C10 14.7773 10.2227 15 10.5 15H29.5C29.7773 15 30 14.7773 30 14.5V14C30 12.8945 29.1055 12 28 12H12ZM10.5 18C10.2227 18 10 18.2227 10 18.5V26C10 27.1055 10.8945 28 12 28H20.9375C21.3867 28 21.6211 27.4961 21.3594 27.1367C20.5039 25.9766 20 24.5508 20 23C20 21.4492 20.5039 20.0234 21.3555 18.8633C21.6211 18.5039 21.3867 18 20.9375 18H10.5ZM27 18C24.25 18 22 20.25 22 23C22 25.75 24.25 28 27 28C29.75 28 32 25.75 32 23C32 20.25 29.75 18 27 18ZM27.8711 20H28V25.9883H26.8008V21.4102L25.375 21.8516V20.8867L27.8711 20Z" fill="#00CC2F"/>
</svg>
